<svg width="123" height="120" viewBox="0 0 123 120" fill="none" xmlns="http://www.w3.org/2000/svg">
<path d="M49.988 0H50.004V0.007C63.803 0.011 76.298 5.608 85.34 14.652C94.367 23.683 99.959 36.167 99.968 49.955H99.975V49.988V50.028H99.968C99.963 55.585 99.051 60.933 97.374 65.92C97.093 66.757 96.799 67.561 96.497 68.329V68.336C95.051 71.996 93.182 75.456 90.95 78.643L120.032 104.782L120.05 104.798L120.207 104.944L120.218 104.955C121.86 106.518 122.754 108.611 122.867 110.735C122.977 112.835 122.324 114.983 120.888 116.706L120.877 116.722L120.702 116.925L120.667 116.96L120.521 117.12L120.505 117.141C118.94 118.783 116.851 119.675 114.725 119.787C112.628 119.898 110.478 119.247 108.754 117.809L108.739 117.798L108.535 117.623L108.506 117.599L78.761 90.865C77.881 91.485 76.983 92.074 76.074 92.63C74.841 93.385 73.564 94.096 72.261 94.745C65.562 98.087 57.992 99.967 49.989 99.967V99.974H49.973V99.967C36.174 99.963 23.677 94.366 14.635 85.322C5.605 76.291 0.016 63.805 0.007 50.021H0V49.988V49.972H0.007C0.011 36.173 5.608 23.676 14.652 14.634C23.683 5.608 36.167 0.016 49.955 0.007V0H49.988ZM50.004 11.21V11.217H49.988H49.955V11.21C39.269 11.217 29.583 15.56 22.571 22.569C15.56 29.578 11.213 39.274 11.21 49.973H11.217V49.989V50.022H11.21C11.217 60.708 15.557 70.389 22.569 77.403C29.578 84.415 39.274 88.762 49.972 88.764V88.757H49.988H50.021V88.764C60.707 88.757 70.389 84.416 77.403 77.405C84.414 70.396 88.761 60.703 88.763 50.005H88.757V49.989V49.956H88.763C88.757 39.27 84.413 29.584 77.405 22.572C70.396 15.56 60.703 11.213 50.004 11.21Z" fill="#137038"/>
<path d="M34.816 24C30.9901 24.0007 27.8776 27.1137 27.8776 30.9393V66.0609C27.8776 69.8868 30.9901 72.9997 34.8162 73.0002H67.5677C68.4264 73.0002 69.1224 72.3042 69.1224 71.4455V66.0609V60.6763V36.3239V25.5547C69.1224 24.696 68.4264 24 67.5677 24H34.816ZM34.8162 27.1095H66.0129V36.3239V59.1213H34.816C33.4013 59.1216 32.0851 59.5482 30.9871 60.2778V30.9393C30.9871 28.8279 32.705 27.1097 34.8162 27.1095ZM66.0129 69.8905H34.8165C32.705 69.8903 30.9871 68.1721 30.9871 66.0607C30.9871 63.9492 32.7048 62.231 34.8162 62.2308H66.0129V64.5059H41.5327C40.674 64.5059 39.9779 65.2019 39.9779 66.0607C39.9779 66.9194 40.674 67.6154 41.5327 67.6154H66.0129V69.8905Z" fill="#137038"/>
<path d="M42.2827 45.816V51.7026C42.2827 52.5614 42.9787 53.2574 43.8374 53.2574H53.1623C54.021 53.2574 54.7171 52.5614 54.7171 51.7026V45.8163C56.7713 44.9917 58.1952 42.9772 58.1952 40.6747C58.1952 37.7058 55.8477 35.2752 52.9116 35.1414C51.8765 33.7717 50.2638 32.9545 48.5001 32.9545C46.7357 32.9545 45.1232 33.7717 44.0884 35.1414C41.1521 35.2752 38.8045 37.706 38.8045 40.6747C38.8045 42.9775 40.2287 44.9917 42.2827 45.816ZM44.3439 38.2451C44.4615 38.2451 44.5812 38.2538 44.7003 38.2712C45.3685 38.37 46.022 38.0259 46.3202 37.421C46.7334 36.5842 47.569 36.064 48.5006 36.064C49.432 36.064 50.2675 36.5842 50.6812 37.4215C50.9797 38.0264 51.6362 38.3695 52.3014 38.2712C52.4198 38.2538 52.5392 38.2451 52.6568 38.2451C53.9967 38.2451 55.0867 39.3352 55.0867 40.675C55.0867 41.8951 54.1755 42.931 52.9673 43.0842C52.1907 43.1827 51.6083 43.8436 51.6083 44.6265V50.1479H45.3921V44.7292C45.3921 44.7275 45.3924 44.7255 45.3924 44.724C45.4439 43.9048 44.8496 43.1867 44.0354 43.0839C42.8259 42.9315 41.914 41.8959 41.914 40.6747C41.914 39.3349 43.0041 38.2451 44.3439 38.2451Z" fill="#137038"/>
</svg>
